<mxfile host="app.diagrams.net" modified="2023-10-15T19:42:17.057Z" agent="Mozilla/5.0 (Windows NT 10.0; Win64; x64) AppleWebKit/537.36 (KHTML, like Gecko) Chrome/118.0.0.0 Safari/537.36" etag="L6iIvAvdbTPxrNaG6ReY" version="22.0.4" type="device">
  <diagram name="Page-1" id="L6rJAYIZI01K6Ozr-O8i">
    <mxGraphModel dx="1499" dy="695" grid="1" gridSize="10" guides="1" tooltips="1" connect="1" arrows="1" fold="1" page="1" pageScale="1" pageWidth="850" pageHeight="1100" math="0" shadow="0">
      <root>
        <mxCell id="0" />
        <mxCell id="1" parent="0" />
        <mxCell id="sn8Y2phNeKiqkUk8vz9X-10" value="Wi-Fi-Scanner - use case" style="shape=umlFrame;whiteSpace=wrap;html=1;strokeWidth=1;fillColor=none;width=200;height=30;fontColor=#000099;strokeColor=#000066;" vertex="1" parent="1">
          <mxGeometry x="130" width="700" height="620" as="geometry" />
        </mxCell>
        <mxCell id="sn8Y2phNeKiqkUk8vz9X-1" value="Initializing a Wi-Fi network scan" style="ellipse;whiteSpace=wrap;html=1;fillColor=#FF8000;strokeColor=#000066;fontColor=#000099;" vertex="1" parent="1">
          <mxGeometry x="165" y="75" width="115" height="55" as="geometry" />
        </mxCell>
        <mxCell id="sn8Y2phNeKiqkUk8vz9X-2" value="Save Wi-Fi Network data" style="ellipse;whiteSpace=wrap;html=1;fillColor=#FF8000;strokeColor=#000066;fontColor=#000099;" vertex="1" parent="1">
          <mxGeometry x="162.5" y="310" width="117.5" height="60" as="geometry" />
        </mxCell>
        <mxCell id="sn8Y2phNeKiqkUk8vz9X-4" value="Implementing Firebase Database Integration" style="ellipse;whiteSpace=wrap;html=1;fillColor=#FF8000;strokeColor=#000066;fontColor=#000099;" vertex="1" parent="1">
          <mxGeometry x="495" y="310" width="120" height="60" as="geometry" />
        </mxCell>
        <mxCell id="sn8Y2phNeKiqkUk8vz9X-38" value="" style="edgeStyle=orthogonalEdgeStyle;rounded=0;orthogonalLoop=1;jettySize=auto;html=1;" edge="1" parent="1" source="sn8Y2phNeKiqkUk8vz9X-5" target="sn8Y2phNeKiqkUk8vz9X-34">
          <mxGeometry relative="1" as="geometry" />
        </mxCell>
        <mxCell id="sn8Y2phNeKiqkUk8vz9X-5" value="Analyzing Wi-Fi networks" style="ellipse;whiteSpace=wrap;html=1;fillColor=#FF8000;strokeColor=#000066;fontColor=#000099;" vertex="1" parent="1">
          <mxGeometry x="165" y="190" width="120" height="60" as="geometry" />
        </mxCell>
        <mxCell id="sn8Y2phNeKiqkUk8vz9X-6" style="html=1;exitX=1;exitY=0.3333333333333333;exitPerimeter=0;entryX=0;entryY=0.5;jettySize=auto;orthogonalLoop=1;fillColor=#f8cecc;strokeColor=#FF8000;curved=1;fontColor=#000099;" edge="1" parent="1" source="sn8Y2phNeKiqkUk8vz9X-9" target="sn8Y2phNeKiqkUk8vz9X-1">
          <mxGeometry relative="1" as="geometry" />
        </mxCell>
        <mxCell id="sn8Y2phNeKiqkUk8vz9X-7" style="edgeStyle=none;curved=1;html=1;entryX=0;entryY=0.5;jettySize=auto;orthogonalLoop=1;strokeColor=#FF8000;fontColor=#000099;" edge="1" parent="1" target="sn8Y2phNeKiqkUk8vz9X-2">
          <mxGeometry relative="1" as="geometry">
            <mxPoint x="70" y="250" as="sourcePoint" />
          </mxGeometry>
        </mxCell>
        <mxCell id="sn8Y2phNeKiqkUk8vz9X-9" value="User" style="shape=umlActor;verticalLabelPosition=bottom;labelBackgroundColor=#ffffff;verticalAlign=top;html=1;strokeWidth=4;fillColor=#FF8000;strokeColor=#000066;fontColor=#000099;" vertex="1" parent="1">
          <mxGeometry x="40" y="230" width="30" height="60" as="geometry" />
        </mxCell>
        <mxCell id="sn8Y2phNeKiqkUk8vz9X-11" value="" style="endArrow=open;endSize=12;dashed=1;html=1;entryX=0;entryY=0.5;fontColor=#000099;strokeColor=#FF8000;exitX=1;exitY=0.5;exitDx=0;exitDy=0;" edge="1" parent="1" source="sn8Y2phNeKiqkUk8vz9X-3">
          <mxGeometry x="0.0747" y="20" width="160" relative="1" as="geometry">
            <mxPoint x="280" y="120" as="sourcePoint" />
            <mxPoint x="380" y="101.25" as="targetPoint" />
            <mxPoint as="offset" />
          </mxGeometry>
        </mxCell>
        <mxCell id="sn8Y2phNeKiqkUk8vz9X-13" value="" style="endArrow=open;endSize=12;dashed=1;html=1;exitX=1;exitY=0.5;entryX=0;entryY=0.5;fontColor=#000099;strokeColor=#FF8000;entryDx=0;entryDy=0;exitDx=0;exitDy=0;" edge="1" parent="1" source="sn8Y2phNeKiqkUk8vz9X-2" target="sn8Y2phNeKiqkUk8vz9X-45">
          <mxGeometry x="-0.188" y="15" width="160" relative="1" as="geometry">
            <mxPoint x="282.5" y="354.5" as="sourcePoint" />
            <mxPoint x="399.5" y="354.5" as="targetPoint" />
            <Array as="points" />
            <mxPoint y="1" as="offset" />
          </mxGeometry>
        </mxCell>
        <mxCell id="sn8Y2phNeKiqkUk8vz9X-14" value="&lt;br&gt;" style="endArrow=open;endSize=12;dashed=1;html=1;fontColor=#000099;strokeColor=#FF8000;entryX=0;entryY=0.5;entryDx=0;entryDy=0;exitX=1;exitY=0.5;exitDx=0;exitDy=0;" edge="1" parent="1" source="sn8Y2phNeKiqkUk8vz9X-3">
          <mxGeometry x="-0.1912" y="17" width="160" relative="1" as="geometry">
            <mxPoint x="420" y="120" as="sourcePoint" />
            <mxPoint x="490" y="101.25" as="targetPoint" />
            <mxPoint as="offset" />
          </mxGeometry>
        </mxCell>
        <mxCell id="sn8Y2phNeKiqkUk8vz9X-16" value="" style="endArrow=open;endSize=12;dashed=1;html=1;exitX=0.5;exitY=1;entryX=0.5;entryY=0;fontColor=#000099;strokeColor=#FF8000;entryDx=0;entryDy=0;exitDx=0;exitDy=0;" edge="1" parent="1" target="sn8Y2phNeKiqkUk8vz9X-17">
          <mxGeometry x="-0.0492" y="-45" width="160" relative="1" as="geometry">
            <mxPoint x="555" y="133.75" as="sourcePoint" />
            <mxPoint x="537.5" y="280.5" as="targetPoint" />
            <Array as="points" />
            <mxPoint as="offset" />
          </mxGeometry>
        </mxCell>
        <mxCell id="sn8Y2phNeKiqkUk8vz9X-17" value="Displaying a list of scanned networks" style="ellipse;whiteSpace=wrap;html=1;fillColor=#FF8000;strokeColor=#000066;fontColor=#000099;" vertex="1" parent="1">
          <mxGeometry x="490" y="71.25" width="130" height="60" as="geometry" />
        </mxCell>
        <mxCell id="sn8Y2phNeKiqkUk8vz9X-18" style="edgeStyle=none;curved=1;html=1;exitX=1;exitY=0.3333333333333333;exitPerimeter=0;jettySize=auto;orthogonalLoop=1;strokeColor=#FF8000;entryX=0;entryY=0.5;fontColor=#000099;exitDx=0;exitDy=0;entryDx=0;entryDy=0;" edge="1" parent="1" source="sn8Y2phNeKiqkUk8vz9X-9" target="sn8Y2phNeKiqkUk8vz9X-5">
          <mxGeometry relative="1" as="geometry">
            <mxPoint x="70" y="380" as="sourcePoint" />
            <mxPoint x="185" y="750" as="targetPoint" />
          </mxGeometry>
        </mxCell>
        <mxCell id="sn8Y2phNeKiqkUk8vz9X-20" value="" style="endArrow=open;endSize=12;dashed=1;html=1;entryX=0;entryY=0.5;fontColor=#000099;strokeColor=#FF8000;exitX=1;exitY=0.5;exitDx=0;exitDy=0;" edge="1" parent="1" source="sn8Y2phNeKiqkUk8vz9X-1" target="sn8Y2phNeKiqkUk8vz9X-3">
          <mxGeometry x="0.0747" y="20" width="160" relative="1" as="geometry">
            <mxPoint x="250" y="103" as="sourcePoint" />
            <mxPoint x="380" y="101.25" as="targetPoint" />
            <mxPoint as="offset" />
          </mxGeometry>
        </mxCell>
        <mxCell id="sn8Y2phNeKiqkUk8vz9X-3" value="View available networks" style="ellipse;whiteSpace=wrap;html=1;fillColor=#FF8000;strokeColor=#000066;fontColor=#000099;" vertex="1" parent="1">
          <mxGeometry x="320" y="72.5" width="120" height="57.5" as="geometry" />
        </mxCell>
        <mxCell id="sn8Y2phNeKiqkUk8vz9X-21" value="No Networks found" style="ellipse;whiteSpace=wrap;html=1;fillColor=#FF8000;strokeColor=#000066;fontColor=#000099;" vertex="1" parent="1">
          <mxGeometry x="680" y="71.25" width="130" height="60" as="geometry" />
        </mxCell>
        <mxCell id="sn8Y2phNeKiqkUk8vz9X-25" value="&lt;br&gt;" style="endArrow=open;endSize=12;dashed=1;html=1;fontColor=#000099;strokeColor=#FF8000;entryX=0;entryY=0.5;entryDx=0;entryDy=0;exitX=1;exitY=0.5;exitDx=0;exitDy=0;" edge="1" parent="1" source="sn8Y2phNeKiqkUk8vz9X-17" target="sn8Y2phNeKiqkUk8vz9X-21">
          <mxGeometry x="-0.1912" y="17" width="160" relative="1" as="geometry">
            <mxPoint x="620" y="210" as="sourcePoint" />
            <mxPoint x="650" y="210" as="targetPoint" />
            <mxPoint as="offset" />
          </mxGeometry>
        </mxCell>
        <mxCell id="sn8Y2phNeKiqkUk8vz9X-26" value="&amp;lt;&amp;lt;extend&amp;gt;&amp;gt;&lt;br&gt;" style="edgeLabel;html=1;align=center;verticalAlign=middle;resizable=0;points=[];" vertex="1" connectable="0" parent="sn8Y2phNeKiqkUk8vz9X-25">
          <mxGeometry x="-0.2767" y="1" relative="1" as="geometry">
            <mxPoint x="8" y="20" as="offset" />
          </mxGeometry>
        </mxCell>
        <mxCell id="sn8Y2phNeKiqkUk8vz9X-31" value="Accessing Data Offline" style="ellipse;whiteSpace=wrap;html=1;fillColor=#FF8000;strokeColor=#000066;fontColor=#000099;" vertex="1" parent="1">
          <mxGeometry x="685" y="310" width="120" height="60" as="geometry" />
        </mxCell>
        <mxCell id="sn8Y2phNeKiqkUk8vz9X-32" value="&lt;br&gt;" style="endArrow=open;endSize=12;dashed=1;html=1;fontColor=#000099;strokeColor=#FF8000;exitX=1;exitY=0.5;exitDx=0;exitDy=0;entryX=0;entryY=0.5;entryDx=0;entryDy=0;" edge="1" parent="1" source="sn8Y2phNeKiqkUk8vz9X-4" target="sn8Y2phNeKiqkUk8vz9X-31">
          <mxGeometry x="-0.1912" y="17" width="160" relative="1" as="geometry">
            <mxPoint x="625" y="409.5" as="sourcePoint" />
            <mxPoint x="665" y="409.5" as="targetPoint" />
            <mxPoint as="offset" />
          </mxGeometry>
        </mxCell>
        <mxCell id="sn8Y2phNeKiqkUk8vz9X-34" value="Selection of a Wi-Fi network from the list" style="ellipse;whiteSpace=wrap;html=1;fillColor=#FF8000;strokeColor=#000066;fontColor=#000099;" vertex="1" parent="1">
          <mxGeometry x="320" y="190" width="130" height="60" as="geometry" />
        </mxCell>
        <mxCell id="sn8Y2phNeKiqkUk8vz9X-35" value="" style="endArrow=open;endSize=12;dashed=1;html=1;fontColor=#000099;strokeColor=#FF8000;exitX=1;exitY=0.5;exitDx=0;exitDy=0;entryX=0;entryY=0.5;entryDx=0;entryDy=0;" edge="1" parent="1" source="sn8Y2phNeKiqkUk8vz9X-5" target="sn8Y2phNeKiqkUk8vz9X-34">
          <mxGeometry x="0.0747" y="20" width="160" relative="1" as="geometry">
            <mxPoint x="290" y="290" as="sourcePoint" />
            <mxPoint x="320" y="290" as="targetPoint" />
            <mxPoint as="offset" />
          </mxGeometry>
        </mxCell>
        <mxCell id="sn8Y2phNeKiqkUk8vz9X-36" value="Fetects Wi-Fi data&lt;br style=&quot;border-color: var(--border-color);&quot;&gt;(SSID signal strength, etc)" style="ellipse;whiteSpace=wrap;html=1;fillColor=#FF8000;strokeColor=#000066;fontColor=#000099;" vertex="1" parent="1">
          <mxGeometry x="490" y="190" width="130" height="65" as="geometry" />
        </mxCell>
        <mxCell id="sn8Y2phNeKiqkUk8vz9X-37" value="" style="endArrow=open;endSize=12;dashed=1;html=1;fontColor=#000099;strokeColor=#FF8000;exitX=1;exitY=0.5;exitDx=0;exitDy=0;entryX=0;entryY=0.5;entryDx=0;entryDy=0;" edge="1" parent="1" target="sn8Y2phNeKiqkUk8vz9X-36">
          <mxGeometry x="0.0747" y="20" width="160" relative="1" as="geometry">
            <mxPoint x="452.5" y="222" as="sourcePoint" />
            <mxPoint x="487.5" y="222" as="targetPoint" />
            <mxPoint as="offset" />
          </mxGeometry>
        </mxCell>
        <mxCell id="sn8Y2phNeKiqkUk8vz9X-39" value="Displays the signal strength of the selected network" style="ellipse;whiteSpace=wrap;html=1;fillColor=#FF8000;strokeColor=#000066;fontColor=#000099;" vertex="1" parent="1">
          <mxGeometry x="680" y="190" width="130" height="65" as="geometry" />
        </mxCell>
        <mxCell id="sn8Y2phNeKiqkUk8vz9X-40" value="" style="endArrow=open;endSize=12;dashed=1;html=1;fontColor=#000099;strokeColor=#FF8000;exitX=1;exitY=0.5;exitDx=0;exitDy=0;entryX=0;entryY=0.5;entryDx=0;entryDy=0;" edge="1" parent="1" source="sn8Y2phNeKiqkUk8vz9X-36" target="sn8Y2phNeKiqkUk8vz9X-39">
          <mxGeometry x="0.0747" y="20" width="160" relative="1" as="geometry">
            <mxPoint x="620" y="222" as="sourcePoint" />
            <mxPoint x="652.5" y="223" as="targetPoint" />
            <mxPoint as="offset" />
          </mxGeometry>
        </mxCell>
        <mxCell id="sn8Y2phNeKiqkUk8vz9X-43" value="&lt;br&gt;" style="endArrow=open;endSize=12;dashed=1;html=1;fontColor=#000099;strokeColor=#FF8000;entryX=0.5;entryY=1;entryDx=0;entryDy=0;" edge="1" parent="1" source="sn8Y2phNeKiqkUk8vz9X-39" target="sn8Y2phNeKiqkUk8vz9X-21">
          <mxGeometry x="-0.1912" y="17" width="160" relative="1" as="geometry">
            <mxPoint x="630" y="111" as="sourcePoint" />
            <mxPoint x="690" y="111" as="targetPoint" />
            <mxPoint as="offset" />
          </mxGeometry>
        </mxCell>
        <mxCell id="sn8Y2phNeKiqkUk8vz9X-44" value="&amp;lt;&amp;lt;extend&amp;gt;&amp;gt;&lt;br&gt;" style="edgeLabel;html=1;align=center;verticalAlign=middle;resizable=0;points=[];" vertex="1" connectable="0" parent="sn8Y2phNeKiqkUk8vz9X-43">
          <mxGeometry x="-0.2767" y="1" relative="1" as="geometry">
            <mxPoint x="-44" y="1" as="offset" />
          </mxGeometry>
        </mxCell>
        <mxCell id="sn8Y2phNeKiqkUk8vz9X-45" value="Decision to save select network data" style="ellipse;whiteSpace=wrap;html=1;fillColor=#FF8000;strokeColor=#000066;fontColor=#000099;" vertex="1" parent="1">
          <mxGeometry x="326.25" y="310" width="117.5" height="60" as="geometry" />
        </mxCell>
        <mxCell id="sn8Y2phNeKiqkUk8vz9X-46" value="" style="endArrow=open;endSize=12;dashed=1;html=1;entryX=0;entryY=0.5;fontColor=#000099;strokeColor=#FF8000;entryDx=0;entryDy=0;" edge="1" parent="1" target="sn8Y2phNeKiqkUk8vz9X-4">
          <mxGeometry x="-0.188" y="15" width="160" relative="1" as="geometry">
            <mxPoint x="440" y="340" as="sourcePoint" />
            <mxPoint x="489.75" y="339.5" as="targetPoint" />
            <Array as="points" />
            <mxPoint y="1" as="offset" />
          </mxGeometry>
        </mxCell>
        <mxCell id="sn8Y2phNeKiqkUk8vz9X-48" style="edgeStyle=none;curved=1;html=1;jettySize=auto;orthogonalLoop=1;strokeColor=#FF8000;fontColor=#000099;entryX=0;entryY=0.5;entryDx=0;entryDy=0;exitX=1;exitY=0.3333333333333333;exitDx=0;exitDy=0;exitPerimeter=0;" edge="1" parent="1" source="sn8Y2phNeKiqkUk8vz9X-9" target="sn8Y2phNeKiqkUk8vz9X-49">
          <mxGeometry relative="1" as="geometry">
            <mxPoint x="80" y="260" as="sourcePoint" />
            <mxPoint x="170" y="430" as="targetPoint" />
            <Array as="points">
              <mxPoint x="110" y="330" />
            </Array>
          </mxGeometry>
        </mxCell>
        <mxCell id="sn8Y2phNeKiqkUk8vz9X-49" value="Retrieval of network data" style="ellipse;whiteSpace=wrap;html=1;fillColor=#FF8000;strokeColor=#000066;fontColor=#000099;" vertex="1" parent="1">
          <mxGeometry x="167.5" y="420" width="117.5" height="60" as="geometry" />
        </mxCell>
        <mxCell id="sn8Y2phNeKiqkUk8vz9X-51" value="Manage saved networks folder" style="ellipse;whiteSpace=wrap;html=1;fillColor=#FF8000;strokeColor=#000066;fontColor=#000099;" vertex="1" parent="1">
          <mxGeometry x="326.25" y="420" width="117.5" height="60" as="geometry" />
        </mxCell>
        <mxCell id="sn8Y2phNeKiqkUk8vz9X-52" value="" style="endArrow=open;endSize=12;dashed=1;html=1;fontColor=#000099;strokeColor=#FF8000;entryX=0;entryY=0.5;entryDx=0;entryDy=0;" edge="1" parent="1" target="sn8Y2phNeKiqkUk8vz9X-51">
          <mxGeometry x="-0.188" y="15" width="160" relative="1" as="geometry">
            <mxPoint x="290" y="450" as="sourcePoint" />
            <mxPoint x="320" y="450" as="targetPoint" />
            <Array as="points" />
            <mxPoint y="1" as="offset" />
          </mxGeometry>
        </mxCell>
        <mxCell id="sn8Y2phNeKiqkUk8vz9X-53" value="Displays networks stored in Firebase Database" style="ellipse;whiteSpace=wrap;html=1;fillColor=#FF8000;strokeColor=#000066;fontColor=#000099;" vertex="1" parent="1">
          <mxGeometry x="495" y="420" width="125" height="60" as="geometry" />
        </mxCell>
        <mxCell id="sn8Y2phNeKiqkUk8vz9X-54" value="" style="endArrow=open;endSize=12;dashed=1;html=1;fontColor=#000099;strokeColor=#FF8000;entryX=0;entryY=0.5;entryDx=0;entryDy=0;exitX=1;exitY=0.5;exitDx=0;exitDy=0;" edge="1" parent="1" source="sn8Y2phNeKiqkUk8vz9X-51" target="sn8Y2phNeKiqkUk8vz9X-53">
          <mxGeometry x="-0.188" y="15" width="160" relative="1" as="geometry">
            <mxPoint x="470" y="450" as="sourcePoint" />
            <mxPoint x="479.75" y="449.5" as="targetPoint" />
            <Array as="points" />
            <mxPoint y="1" as="offset" />
          </mxGeometry>
        </mxCell>
        <mxCell id="sn8Y2phNeKiqkUk8vz9X-55" value="Delete/edit saved networks" style="ellipse;whiteSpace=wrap;html=1;fillColor=#FF8000;strokeColor=#000066;fontColor=#000099;" vertex="1" parent="1">
          <mxGeometry x="680" y="420" width="125" height="60" as="geometry" />
        </mxCell>
        <mxCell id="sn8Y2phNeKiqkUk8vz9X-56" value="&lt;br&gt;" style="endArrow=open;endSize=12;dashed=1;html=1;fontColor=#000099;strokeColor=#FF8000;" edge="1" parent="1">
          <mxGeometry x="-0.1912" y="17" width="160" relative="1" as="geometry">
            <mxPoint x="620" y="450" as="sourcePoint" />
            <mxPoint x="680" y="450" as="targetPoint" />
            <mxPoint as="offset" />
          </mxGeometry>
        </mxCell>
        <mxCell id="sn8Y2phNeKiqkUk8vz9X-57" value="&amp;lt;&amp;lt;extend&amp;gt;&amp;gt;&lt;br&gt;" style="edgeLabel;html=1;align=center;verticalAlign=middle;resizable=0;points=[];" vertex="1" connectable="0" parent="1">
          <mxGeometry x="650" y="470" as="geometry" />
        </mxCell>
      </root>
    </mxGraphModel>
  </diagram>
</mxfile>
